<?xml version="1.0" encoding="UTF-8" standalone="no"?>
<!-- Uploaded to: SVG Repo, www.svgrepo.com, Generator: SVG Repo Mixer Tools -->

<svg
   width="495.63416"
   height="496.23654"
   viewBox="0 -0.5 15.488567 15.507392"
   fill="none"
   version="1.1"
   id="svg2"
   sodipodi:docname="calling2.svg"
   inkscape:version="1.4.2 (f4327f4, 2025-05-13)"
   xmlns:inkscape="http://www.inkscape.org/namespaces/inkscape"
   xmlns:sodipodi="http://sodipodi.sourceforge.net/DTD/sodipodi-0.dtd"
   xmlns="http://www.w3.org/2000/svg"
   xmlns:svg="http://www.w3.org/2000/svg">
  <defs
     id="defs2" />
  <sodipodi:namedview
     id="namedview2"
     pagecolor="#505050"
     bordercolor="#eeeeee"
     borderopacity="1"
     inkscape:showpageshadow="0"
     inkscape:pageopacity="0"
     inkscape:pagecheckerboard="0"
     inkscape:deskcolor="#505050"
     inkscape:zoom="0.71859727"
     inkscape:cx="437.65822"
     inkscape:cy="114.80701"
     inkscape:window-width="1920"
     inkscape:window-height="1094"
     inkscape:window-x="-11"
     inkscape:window-y="-11"
     inkscape:window-maximized="1"
     inkscape:current-layer="svg2" />
  <path
     fill-rule="evenodd"
     clip-rule="evenodd"
     d="m 1.4903287,3.4181564 c 0.754,-0.795 1.021,-1.018 1.342,-1.121 0.22249,-0.05852 0.45589,-0.06196 0.68,-0.01 0.295,0.086 0.372,0.151 1.34,1.114 0.84997,0.846 0.93397,0.938 1.01597,1.1 0.1586,0.29158 0.1841,0.6373 0.07,0.94895 -0.084,0.235 -0.208,0.391 -0.72297,0.909 l -0.336,0.337 c -0.0884,0.0897 -0.10936,0.226 -0.052,0.338 0.74587,1.2726 1.80387,2.334 3.07397,3.0839996 0.1465,0.0786 0.327,0.0531 0.446,-0.063 l 0.323,-0.3179996 c 0.1996,-0.2048 0.411,-0.3978 0.633,-0.578 0.3482,-0.2154 0.7829003,-0.2362 1.1500003,-0.055 0.179,0.084 0.239,0.139 1.116,1.0129996 0.9,0.9 0.929,0.929 1.03,1.136 0.1886,0.3429 0.1867,0.7589 -0.005,1.1 -0.1,0.192 -0.156,0.262 -0.664,0.781 -0.307,0.314 -0.6,0.6 -0.642,0.642 -0.4195,0.3468 -0.9573,0.5171 -1.5000003,0.475 -0.9928,-0.0908 -1.9536,-0.398 -2.815,-0.9 -1.90914,-1.0115 -3.53432,-2.4854 -4.72697,-4.2869996 -0.26081,-0.3766 -0.4928,-0.7724 -0.694,-1.184 -0.53609,-0.919 -0.81323995,-1.9661 -0.80199995,-3.02995 0.04032,-0.55848 0.30776995,-1.07604 0.73999995,-1.432 z"
     stroke="#000000"
     stroke-width="1.5"
     stroke-linecap="round"
     stroke-linejoin="round"
     id="path1"
     style="stroke:#008888;stroke-opacity:1" />
  <path
     d="m 10.091699,-0.45570357 c -0.3899003,-0.13993 -0.8193003,0.06268 -0.9593003,0.45255 -0.1399,0.38986 0.0627,0.81934 0.4526,0.95927 z m 3.9451,5.78910997 c 0.1465,0.3875 0.5793,0.5828 0.9668,0.4363 0.3874,-0.1465 0.5828,-0.57929 0.4363,-0.96674 z m -5.1332003,-3.56178 c -0.4041,-0.09124 -0.8056,0.16232 -0.8968,0.56636 -0.0913,0.40404 0.1623,0.80555 0.5663,0.8968 z m 2.9160003,4.65598 c 0.098,0.4025 0.5037,0.6493 0.9061,0.5513 0.4025,-0.098 0.6493,-0.5036 0.5514,-0.9061 z M 9.5849987,0.95611643 C 11.638199,1.6930664 13.265299,3.2929164 14.036799,5.3334064 l 1.4031,-0.53044 c -0.9268,-2.45137 -2.8815,-4.37333997 -5.3482,-5.25866997 z m -1.0119,2.27866997 c 1.6007003,0.36149 2.8584003,1.59843 3.2465003,3.19282 l 1.4575,-0.3548 c -0.5229,-2.14785 -2.2173,-3.8142 -4.3735003,-4.30118 z"
     fill="#000000"
     id="path2"
     style="fill:#008888;fill-opacity:1" />
</svg>
