<?xml version="1.0" encoding="UTF-8" standalone="no"?>
<!-- Uploaded to: SVG Repo, www.svgrepo.com, Generator: SVG Repo Mixer Tools -->

<svg
   height="774.1969"
   width="543.99689"
   version="1.1"
   id="Layer_1"
   viewBox="0 0 348.15801 495.48602"
   xml:space="preserve"
   sodipodi:docname="lock.svg"
   inkscape:version="1.4.2 (f4327f4, 2025-05-13)"
   xmlns:inkscape="http://www.inkscape.org/namespaces/inkscape"
   xmlns:sodipodi="http://sodipodi.sourceforge.net/DTD/sodipodi-0.dtd"
   xmlns="http://www.w3.org/2000/svg"
   xmlns:svg="http://www.w3.org/2000/svg"><defs
   id="defs8" /><sodipodi:namedview
   id="namedview8"
   pagecolor="#505050"
   bordercolor="#eeeeee"
   borderopacity="1"
   inkscape:showpageshadow="0"
   inkscape:pageopacity="0"
   inkscape:pagecheckerboard="0"
   inkscape:deskcolor="#505050"
   inkscape:zoom="1.01625"
   inkscape:cx="272.07872"
   inkscape:cy="388.19188"
   inkscape:window-width="1920"
   inkscape:window-height="1094"
   inkscape:window-x="-11"
   inkscape:window-y="-11"
   inkscape:window-maximized="1"
   inkscape:current-layer="Layer_1" />
<path
   style="fill:#008888;fill-opacity:1"
   d="m 280.011,274.614 c -18.241,0 -33.029,-14.788 -33.029,-33.029 V 138.962 c 0,-40.199 -32.704,-72.902 -72.902,-72.902 -40.199,0 -72.903,32.704 -72.903,72.902 v 102.623 c 0,18.241 -14.788,33.029 -33.029,33.029 -18.241,0 -33.029,-14.788 -33.029,-33.029 V 138.962 C 35.119,62.339 97.457,0 174.081,0 c 76.624,0 138.96,62.338 138.96,138.96 v 102.623 c -10e-4,18.243 -14.789,33.031 -33.03,33.031 z"
   id="path1" />

<path
   style="fill:#008888;fill-opacity:1"
   d="M 317.359,201.044 H 30.799 C 13.789,201.044 0,214.834 0,231.843 v 232.844 c 0,17.01 13.789,30.799 30.799,30.799 h 286.56 c 17.01,0 30.799,-13.789 30.799,-30.799 V 231.842 c 0,-17.009 -13.79,-30.798 -30.799,-30.798 z"
   id="path4" />




</svg>
