<?xml version="1.0" encoding="UTF-8" standalone="no"?>
<!-- Uploaded to: SVG Repo, www.svgrepo.com, Generator: SVG Repo Mixer Tools -->

<svg
   width="701.06348"
   height="665.06049"
   viewBox="0 0 21.031904 19.951815"
   fill="none"
   version="1.1"
   id="svg4"
   sodipodi:docname="webpage2.svg"
   inkscape:version="1.4.2 (f4327f4, 2025-05-13)"
   xmlns:inkscape="http://www.inkscape.org/namespaces/inkscape"
   xmlns:sodipodi="http://sodipodi.sourceforge.net/DTD/sodipodi-0.dtd"
   xmlns="http://www.w3.org/2000/svg"
   xmlns:svg="http://www.w3.org/2000/svg">
  <defs
     id="defs4" />
  <sodipodi:namedview
     id="namedview4"
     pagecolor="#505050"
     bordercolor="#eeeeee"
     borderopacity="1"
     inkscape:showpageshadow="0"
     inkscape:pageopacity="0"
     inkscape:pagecheckerboard="0"
     inkscape:deskcolor="#505050"
     inkscape:zoom="1.01625"
     inkscape:cx="333.08733"
     inkscape:cy="333.08733"
     inkscape:window-width="1920"
     inkscape:window-height="1094"
     inkscape:window-x="-11"
     inkscape:window-y="-11"
     inkscape:window-maximized="1"
     inkscape:current-layer="svg4" />
  <path
     d="M 0,3.25 C 0,1.45507 1.45507,0 3.25,0 h 11.5 C 16.5449,0 18,1.45507 18,3.25 V 6.00934 C 17.4951,5.95675 16.9878,5.99076 16.5,6.10566 V 5 h -15 v 9.75 c 0,0.9665 0.7835,1.75 1.75,1.75 h 7.9847 l -0.4412,0.7641 C 10.6577,17.4994 10.5652,17.7477 10.5135,18 H 3.25 C 1.45507,18 0,16.5449 0,14.75 Z M 3.25,1.5 C 2.2835,1.5 1.5,2.2835 1.5,3.25 V 3.5 h 15 V 3.25 C 16.5,2.2835 15.7165,1.5 14.75,1.5 Z"
     fill="#212121"
     id="path1"
     style="fill:#008888;fill-opacity:1" />
  <path
     d="m 17.8565,7 c -0.2154,-0.01995 -0.431,-0.0197 -0.6442,0 -1.0929,0.10098 -2.1216,0.71296 -2.7121,1.7357 -0.7087,1.2275 -0.5893,2.7058 0.1848,3.7882 l -3.0255,5.2402 c -0.0442,0.0766 -0.0807,0.1555 -0.1096,0.2359 -0.235,0.6516 0.0225,1.3977 0.6434,1.7562 0.6975,0.4027 1.5895,0.1637 1.9922,-0.5338 l 3.0311,-5.25 c 1.3155,0.1179 2.642,-0.5176 3.3458,-1.7367 0.762,-1.3197 0.5667,-2.9294 -0.3703,-4.0252 l -1.6504,2.8586 c -0.3222,0.558 -1.0357,0.7492 -1.5937,0.427 C 16.39,11.1739 16.1988,10.4604 16.521,9.9024 L 18.1714,7.04377 C 18.0667,7.0243 17.9616,7.00974 17.8565,7 Z"
     fill="#212121"
     id="path2"
     style="fill:#008888;fill-opacity:1" />
  <path
     d="m 13.1652,11.5745 c -0.17,-0.6812 -0.1818,-1.4027 -0.0189,-2.1047 L 10.8579,7.17831 C 10.6628,6.98291 10.3462,6.98269 10.1508,7.17782 9.9554,7.37295 9.9552,7.68953 10.1503,7.88493 l 2.6431,2.64667 -2.6431,2.6467 c -0.1951,0.1954 -0.1949,0.512 5e-4,0.7071 0.1954,0.1951 0.512,0.1949 0.7071,-5e-4 z"
     fill="#212121"
     id="path3"
     style="fill:#008888;fill-opacity:1" />
  <path
     d="M 7.85672,7.88537 C 8.0521,7.69021 8.0523,7.37363 7.85711,7.17826 7.66196,6.98289 7.34538,6.98271 7.15001,7.17787 L 4.14664,10.1779 C 4.05275,10.2717 4,10.3989 4,10.5316 c 0,0.1327 0.05276,0.26 0.14665,0.3538 l 3.00336,3 c 0.19537,0.1951 0.51195,0.1949 0.7071,-4e-4 C 8.0523,13.6896 8.0521,13.373 7.85672,13.1779 L 5.2075,10.5316 Z"
     fill="#212121"
     id="path4"
     style="fill:#008888;fill-opacity:1" />
</svg>
