<?xml version="1.0" encoding="UTF-8" standalone="no"?>
<svg
   shape-rendering="geometricPrecision"
   text-rendering="geometricPrecision"
   image-rendering="optimizeQuality"
   fill-rule="evenodd"
   clip-rule="evenodd"
   viewBox="0 0 293 511.772"
   version="1.1"
   id="svg1"
   sodipodi:docname="whiteiphone.svg"
   inkscape:version="1.4.2 (f4327f4, 2025-05-13)"
   xmlns:inkscape="http://www.inkscape.org/namespaces/inkscape"
   xmlns:sodipodi="http://sodipodi.sourceforge.net/DTD/sodipodi-0.dtd"
   xmlns="http://www.w3.org/2000/svg"
   xmlns:svg="http://www.w3.org/2000/svg">
  <defs
     id="defs1" />
  <sodipodi:namedview
     id="namedview1"
     pagecolor="#505050"
     bordercolor="#eeeeee"
     borderopacity="1"
     inkscape:showpageshadow="0"
     inkscape:pageopacity="0"
     inkscape:pagecheckerboard="0"
     inkscape:deskcolor="#505050"
     inkscape:zoom="1.588598"
     inkscape:cx="146.98495"
     inkscape:cy="255.88601"
     inkscape:window-width="1920"
     inkscape:window-height="1094"
     inkscape:window-x="-11"
     inkscape:window-y="-11"
     inkscape:window-maximized="1"
     inkscape:current-layer="svg1" />
  <path
     fill="#fff"
     d="M62.07 0h168.874c17.119 0 32.743 6.986 43.878 18.206C286.113 29.511 293 45.049 293 62.084v387.617c0 17.134-6.972 32.757-18.178 43.878-11.319 11.319-26.843 18.192-43.878 18.192l-168.874.001c-17.133 0-32.757-6.972-43.878-18.192C6.887 482.289 0 466.751 0 449.702V62c0-17.133 6.972-32.757 18.192-43.892C29.482 6.817 44.937 0 62.07 0zM19.766 425.554h253.383V61.49H19.766v364.064zm126.657 19.42c14.042 0 25.516 11.305 25.516 25.516 0 14.057-11.304 25.531-25.516 25.531-14.043 0-25.531-11.304-25.531-25.531 0-14.129 11.406-25.516 25.531-25.516z"
     id="path1"
     style="fill:#008888;fill-opacity:1" />
</svg>
